# xmcd
#
# Track frame offsets:
#	150
#	20677
#	40936
#	64077
#	94615
#	136172
#	152301
#	179632
#	193982
#	213571
#	232107
#	245744
#	263330
#	282642
#
# Disc length: 4030 seconds
#
# Revision: 0
# Processed by: cddbd v1.5.2PL0 Copyright (c) Steve Scherf et al.
# Submitted via: audiograbber 1.83.01
#
DISCID=ce0fbc0e
DTITLE=Kenny Chesney - Live in No Shoes Nation CD1
DYEAR=2017
DGENRE=Country
TTITLE0=Flora-Bama (Live)
TTITLE1=Summertime (Live)
TTITLE2=Big Star (Live)
TTITLE3=Boston (Live)
TTITLE4=When I See This Bar (Live)
TTITLE5=No Shoes, No Shirt, No Problems (Live)
TTITLE6=Anything but Mine (Live)
TTITLE7=Down the Road (Live) (feat. Mac McAnally)
TTITLE8=Guitars and Tiki Bars (Live)
TTITLE9=Hemingway's Whiskey (Live)
TTITLE10=Everybody Wants to Go to Heaven (Live)
TTITLE11=I'm Alive (Live)
TTITLE12=Save It for a Rainy Day (Live)
TTITLE13=Pirate Flag (Live)
EXTD=
EXTT0=
EXTT1=
EXTT2=
EXTT3=
EXTT4=
EXTT5=
EXTT6=
EXTT7=
EXTT8=
EXTT9=
EXTT10=
EXTT11=
EXTT12=
EXTT13=
PLAYORDER=
